<svg width="115" height="115" viewBox="0 0 115 115" fill="none" xmlns="http://www.w3.org/2000/svg">
<path d="M35.1785 48.3216L57.5136 25.9956L79.8578 48.3398L92.8465 35.342L57.5136 0L22.1807 35.3329L35.1785 48.3216Z" fill="#F3BA2F"/>
<path d="M0 57.5045L12.9887 44.5067L25.9865 57.5045L12.9887 70.4932L0 57.5045Z" fill="#F3BA2F"/>
<path d="M35.1785 66.6784L57.5136 89.0135L79.8578 66.6693L92.8556 79.6489L57.5227 114.991L22.1807 79.6762L35.1785 66.6784Z" fill="#F3BA2F"/>
<path d="M89.0137 57.5045L102.002 44.5067L115 57.4954L102.002 70.5023L89.0137 57.5045Z" fill="#F3BA2F"/>
<path d="M70.6929 57.4954L57.5134 44.3069L47.7674 54.053L46.6411 55.1702L44.334 57.4773L57.5134 70.6476L70.6929 57.5045V57.4954Z" fill="#F3BA2F"/>
</svg>
