<svg width="115" height="115" viewBox="0 0 115 115" fill="none" xmlns="http://www.w3.org/2000/svg">
<path d="M57.5 115C89.2564 115 115 89.2564 115 57.5C115 25.7436 89.2564 0 57.5 0C25.7436 0 0 25.7436 0 57.5C0 89.2564 25.7436 115 57.5 115Z" fill="#0052FF"/>
<path d="M57.9829 40.6352C64.7526 40.6352 70.123 44.8107 72.1625 51.02H85.8008C83.3301 37.7445 72.377 28.75 58.0918 28.75C41.8694 28.75 29.1992 41.0642 29.1992 57.555C29.1992 74.0458 41.5527 86.25 58.0918 86.25C72.0569 86.25 83.2279 77.2555 85.7008 63.8699H72.1614C70.2275 70.0804 64.8616 74.3648 58.0874 74.3648C48.7402 74.3648 42.1895 67.1896 42.1895 57.555C42.194 47.8104 48.6392 40.6352 57.9829 40.6352Z" fill="white"/>
</svg>
