<svg width="20" height="16" viewBox="0 0 20 16" fill="none" xmlns="http://www.w3.org/2000/svg">
<path d="M8.10357 1.22526C7.94786 0.756789 7.79071 0.284449 7.78786 0.278264C7.71286 0.0965951 7.53929 -0.0178182 7.35643 0.0022814C7.24071 0.0123312 4.50286 0.267441 2.74857 1.79424C1.83143 2.71109 0 8.07149 0 12.706C0 12.7879 0.0192857 12.8676 0.0571429 12.9387C1.32214 15.3429 4.77071 15.9722 5.55643 15.9992C5.56143 16 5.56571 16 5.57 16C5.70857 16 5.83857 15.9281 5.92143 15.8067L6.77143 14.5606C5.36714 14.3294 5.11357 14.0279 5.05429 13.9808C4.73714 13.728 4.50286 13.3739 4.78714 12.9271C5.00571 12.58 5.46429 12.4656 5.81571 12.6612C6.17571 12.8428 7.13929 13.4273 10 13.4118C12.8407 13.4025 14.0879 12.7586 14.1057 12.7446C14.5829 12.5119 14.955 12.6078 15.1871 12.9526C15.4636 13.4218 15.2664 13.7396 14.9507 13.9916C14.8914 14.0387 14.7479 14.1709 13.2393 14.5575L14.0786 15.806C14.1607 15.9281 14.2914 15.9992 14.43 15.9992C14.435 15.9992 14.4393 15.9992 14.4436 15.9985C15.23 15.9714 18.6786 15.3421 19.9429 12.9379C19.9807 12.8668 20 12.7872 20 12.7052C20 8.07149 18.1686 2.71109 17.2286 1.77414C15.4971 0.268215 12.7593 0.0131043 12.6436 0.0022814C12.4607 -0.0147259 12.2871 0.0973681 12.2121 0.278264C12.2093 0.284449 12.0564 0.764519 11.9086 1.22758C11.9086 1.22758 10.7436 1.04282 10 1.04282C9.25643 1.04282 8.10357 1.22526 8.10357 1.22526ZM7.14286 11.0926C6.35357 11.0926 5.71429 10.0621 5.71429 8.78966C5.71429 7.5172 6.35357 6.48671 7.14286 6.48671C7.935 6.35916 8.55429 7.5172 8.57143 8.78966C8.57143 10.0621 7.93214 11.0926 7.14286 11.0926ZM12.8571 11.0926C12.0679 11.0926 11.4286 10.0552 11.4286 8.77575C11.4286 7.49633 12.0679 6.45888 12.8571 6.45888C13.6464 6.45888 14.2857 7.49633 14.2857 8.77575C14.2857 10.0552 13.6464 11.0926 12.8571 11.0926Z" fill="white"/>
</svg>
