<svg width="20" height="20" viewBox="0 0 20 20" fill="none" xmlns="http://www.w3.org/2000/svg">
<path d="M14.167 1.77382H5.83366C3.53247 1.77382 1.66699 3.6393 1.66699 5.94049V14.2738C1.66699 16.575 3.53247 18.4405 5.83366 18.4405H14.167C16.4682 18.4405 18.3337 16.575 18.3337 14.2738V5.94049C18.3337 3.6393 16.4682 1.77382 14.167 1.77382Z" stroke="white" stroke-width="2" stroke-linecap="round" stroke-linejoin="round"/>
<path d="M13.3337 9.58218C13.4366 10.2757 13.3181 10.984 12.9952 11.6064C12.6723 12.2287 12.1614 12.7334 11.5351 13.0486C10.9088 13.3638 10.1991 13.4735 9.5069 13.3621C8.81468 13.2507 8.17521 12.9239 7.67944 12.4281C7.18367 11.9324 6.85685 11.2929 6.74546 10.6007C6.63408 9.90847 6.74379 9.19876 7.05901 8.57249C7.37423 7.94622 7.8789 7.43529 8.50123 7.11238C9.12356 6.78946 9.83187 6.671 10.5254 6.77384C11.2328 6.87875 11.8878 7.2084 12.3935 7.7141C12.8992 8.2198 13.2288 8.87474 13.3337 9.58218Z" stroke="white" stroke-width="2" stroke-linecap="round" stroke-linejoin="round"/>
<path d="M14.584 5.52382H14.5923" stroke="white" stroke-width="2" stroke-linecap="round" stroke-linejoin="round"/>
</svg>
