<svg width="117" height="109" viewBox="0 0 117 109" fill="none" xmlns="http://www.w3.org/2000/svg">
<path d="M110.272 1L65.3999 34.3274L73.6979 14.6647L110.272 1Z" fill="#E2761B" stroke="#E2761B" stroke-linecap="round" stroke-linejoin="round"/>
<path d="M6.68262 1L51.1944 34.6431L43.3022 14.6647L6.68262 1Z" fill="#E4761B" stroke="#E4761B" stroke-linecap="round" stroke-linejoin="round"/>
<path d="M94.1277 78.2529L82.1768 96.5627L107.747 103.598L115.098 78.6588L94.1277 78.2529Z" fill="#E4761B" stroke="#E4761B" stroke-linecap="round" stroke-linejoin="round"/>
<path d="M1.94727 78.6588L9.25315 103.598L34.8237 96.5627L22.8728 78.2529L1.94727 78.6588Z" fill="#E4761B" stroke="#E4761B" stroke-linecap="round" stroke-linejoin="round"/>
<path d="M33.3809 47.3157L26.2554 58.0941L51.6456 59.2216L50.7436 31.9373L33.3809 47.3157Z" fill="#E4761B" stroke="#E4761B" stroke-linecap="round" stroke-linejoin="round"/>
<path d="M83.5749 47.3157L65.9867 31.6216L65.4004 59.2216L90.7455 58.0941L83.5749 47.3157Z" fill="#E4761B" stroke="#E4761B" stroke-linecap="round" stroke-linejoin="round"/>
<path d="M34.8237 96.5627L50.0669 89.1216L36.8982 78.8392L34.8237 96.5627Z" fill="#E4761B" stroke="#E4761B" stroke-linecap="round" stroke-linejoin="round"/>
<path d="M66.8887 89.1216L82.1769 96.5627L80.0573 78.8392L66.8887 89.1216Z" fill="#E4761B" stroke="#E4761B" stroke-linecap="round" stroke-linejoin="round"/>
<path d="M82.1764 96.5628L66.8882 89.1216L68.1058 99.0883L67.9705 103.282L82.1764 96.5628Z" fill="#D7C1B3" stroke="#D7C1B3" stroke-linecap="round" stroke-linejoin="round"/>
<path d="M34.8237 96.5628L49.0296 103.282L48.9394 99.0883L50.0669 89.1216L34.8237 96.5628Z" fill="#D7C1B3" stroke="#D7C1B3" stroke-linecap="round" stroke-linejoin="round"/>
<path d="M49.2548 72.2549L36.5371 68.5118L45.5116 64.4079L49.2548 72.2549Z" fill="#233447" stroke="#233447" stroke-linecap="round" stroke-linejoin="round"/>
<path d="M67.7002 72.2549L71.4433 64.4079L80.4629 68.5118L67.7002 72.2549Z" fill="#233447" stroke="#233447" stroke-linecap="round" stroke-linejoin="round"/>
<path d="M34.8235 96.5627L36.9882 78.2529L22.8726 78.6588L34.8235 96.5627Z" fill="#CD6116" stroke="#CD6116" stroke-linecap="round" stroke-linejoin="round"/>
<path d="M80.0117 78.2529L82.1764 96.5627L94.1274 78.6588L80.0117 78.2529Z" fill="#CD6116" stroke="#CD6116" stroke-linecap="round" stroke-linejoin="round"/>
<path d="M90.745 58.0941L65.3999 59.2216L67.745 72.2549L71.4881 64.4078L80.5078 68.5118L90.745 58.0941Z" fill="#CD6116" stroke="#CD6116" stroke-linecap="round" stroke-linejoin="round"/>
<path d="M36.5372 68.5118L45.5568 64.4078L49.2549 72.2549L51.6451 59.2216L26.2549 58.0941L36.5372 68.5118Z" fill="#CD6116" stroke="#CD6116" stroke-linecap="round" stroke-linejoin="round"/>
<path d="M26.2549 58.0941L36.898 78.8392L36.5372 68.5118L26.2549 58.0941Z" fill="#E4751F" stroke="#E4751F" stroke-linecap="round" stroke-linejoin="round"/>
<path d="M80.5081 68.5118L80.0571 78.8392L90.7454 58.0941L80.5081 68.5118Z" fill="#E4751F" stroke="#E4751F" stroke-linecap="round" stroke-linejoin="round"/>
<path d="M51.6451 59.2216L49.2549 72.2549L52.2314 87.6333L52.9078 67.3843L51.6451 59.2216Z" fill="#E4751F" stroke="#E4751F" stroke-linecap="round" stroke-linejoin="round"/>
<path d="M65.3998 59.2216L64.1821 67.3392L64.7233 87.6333L67.7449 72.2549L65.3998 59.2216Z" fill="#E4751F" stroke="#E4751F" stroke-linecap="round" stroke-linejoin="round"/>
<path d="M67.7452 72.2549L64.7236 87.6333L66.8883 89.1216L80.057 78.8392L80.5079 68.5117L67.7452 72.2549Z" fill="#F6851B" stroke="#F6851B" stroke-linecap="round" stroke-linejoin="round"/>
<path d="M36.5371 68.5117L36.8979 78.8392L50.0665 89.1216L52.2312 87.6333L49.2548 72.2549L36.5371 68.5117Z" fill="#F6851B" stroke="#F6851B" stroke-linecap="round" stroke-linejoin="round"/>
<path d="M67.9708 103.282L68.1061 99.0882L66.9786 98.0961H49.9767L48.9394 99.0882L49.0296 103.282L34.8237 96.5627L39.7845 100.622L49.8414 107.612H67.1139L77.2159 100.622L82.1767 96.5627L67.9708 103.282Z" fill="#C0AD9E" stroke="#C0AD9E" stroke-linecap="round" stroke-linejoin="round"/>
<path d="M66.8885 89.1216L64.7238 87.6333H52.2316L50.0669 89.1216L48.9395 99.0882L49.9767 98.0961H66.9787L68.1061 99.0882L66.8885 89.1216Z" fill="#161616" stroke="#161616" stroke-linecap="round" stroke-linejoin="round"/>
<path d="M112.167 36.4922L116 18.0922L110.273 1L66.8882 33.2L83.5745 47.3157L107.161 54.2157L112.392 48.1275L110.137 46.5039L113.745 43.2118L110.949 41.0471L114.557 38.2961L112.167 36.4922Z" fill="#763D16" stroke="#763D16" stroke-linecap="round" stroke-linejoin="round"/>
<path d="M1 18.0922L4.83333 36.4922L2.39804 38.2961L6.00588 41.0471L3.2549 43.2118L6.86275 46.5039L4.60784 48.1275L9.79412 54.2157L33.3804 47.3157L50.0667 33.2L6.68235 1L1 18.0922Z" fill="#763D16" stroke="#763D16" stroke-linecap="round" stroke-linejoin="round"/>
<path d="M107.161 54.2157L83.5748 47.3157L90.7454 58.0941L80.0571 78.8392L94.1277 78.6588H115.098L107.161 54.2157Z" fill="#F6851B" stroke="#F6851B" stroke-linecap="round" stroke-linejoin="round"/>
<path d="M33.3806 47.3157L9.79432 54.2157L1.94727 78.6588H22.8728L36.8982 78.8392L26.2551 58.0941L33.3806 47.3157Z" fill="#F6851B" stroke="#F6851B" stroke-linecap="round" stroke-linejoin="round"/>
<path d="M65.4003 59.2216L66.8885 33.2L73.7434 14.6647H43.3022L50.067 33.2L51.6454 59.2216L52.1866 67.4294L52.2317 87.6333H64.7238L64.814 67.4294L65.4003 59.2216Z" fill="#F6851B" stroke="#F6851B" stroke-linecap="round" stroke-linejoin="round"/>
</svg>
