<svg width="20" height="20" viewBox="0 0 20 20" fill="none" xmlns="http://www.w3.org/2000/svg">
<path d="M17.7708 7.98301C17.1391 7.98301 16.5833 8.24884 16.1741 8.66301C14.67 7.60634 12.6416 6.92634 10.3941 6.85384L11.5616 1.51551L15.2791 2.36217C15.2791 3.28551 16.0208 4.03967 16.9308 4.03967C17.8583 4.03967 18.6041 3.26551 18.6041 2.34134C18.6041 1.41717 17.8633 0.643005 16.9316 0.643005C16.2825 0.643005 15.7225 1.04051 15.4433 1.58384L11.3375 0.660505C11.1308 0.604672 10.9283 0.754672 10.8733 0.964672L9.59164 6.84967C7.36164 6.94384 5.35497 7.62301 3.8458 8.68051C3.43664 8.24884 2.85914 7.98301 2.22747 7.98301C-0.115865 7.98301 -0.883365 11.1738 1.26247 12.2647C1.18664 12.6022 1.15247 12.9622 1.15247 13.3213C1.15247 16.9055 5.13164 19.8097 10.0175 19.8097C14.9241 19.8097 18.9033 16.9055 18.9033 13.3213C18.9033 12.9622 18.8658 12.5855 18.7733 12.2472C20.8758 11.1522 20.1016 7.98467 17.7708 7.98301ZM4.66747 12.4913C4.66747 11.5505 5.40914 10.793 6.3408 10.793C7.2508 10.793 7.9933 11.5455 7.9933 12.4913C7.9933 13.4155 7.25164 14.1688 6.3408 14.1688C5.4133 14.173 4.66747 13.4155 4.66747 12.4913ZM13.7 16.4897C12.1658 18.0463 7.83664 18.0463 6.30164 16.4897C6.13247 16.3397 6.13247 16.0747 6.30164 15.9038C6.44914 15.7538 6.7108 15.7538 6.8583 15.9038C8.02997 17.123 11.9166 17.1438 13.1391 15.9038C13.2866 15.7538 13.5483 15.7538 13.6958 15.9038C13.8683 16.0755 13.8683 16.3405 13.7 16.4897ZM13.6658 14.1722C12.7558 14.1722 12.0141 13.4197 12.0141 12.4963C12.0141 11.5555 12.7558 10.798 13.6658 10.798C14.5933 10.798 15.3391 11.5505 15.3391 12.4963C15.335 13.4155 14.5933 14.1722 13.6658 14.1722Z" fill="white"/>
</svg>
