<svg width="30" height="30" viewBox="0 0 30 30" fill="none" xmlns="http://www.w3.org/2000/svg">
<path d="M11.0227 21.6291C9.69686 25.6066 4.39355 25.6066 4.39355 25.6066C4.39355 25.6066 4.39355 20.3033 8.37103 18.9775" stroke="white" stroke-width="2" stroke-linecap="round" stroke-linejoin="round"/>
<path d="M22.9545 12.3484L14.9996 20.3033L9.69629 15L17.6512 7.04506C20.6634 4.03285 23.6756 4.06223 24.9603 4.2539C25.1581 4.28339 25.3412 4.37563 25.4826 4.51703C25.624 4.65844 25.7162 4.84153 25.7457 5.03932C25.9374 6.32395 25.9667 9.33615 22.9545 12.3484Z" stroke="white" stroke-width="2" stroke-linecap="round" stroke-linejoin="round"/>
<path d="M21.6291 13.6742V21.2408C21.6291 21.3639 21.6049 21.4858 21.5578 21.5996C21.5106 21.7133 21.4416 21.8167 21.3545 21.9037L17.5645 25.6938C17.4445 25.8138 17.2942 25.8989 17.1296 25.9402C16.965 25.9815 16.7923 25.9773 16.6299 25.9281C16.4675 25.879 16.3215 25.7866 16.2074 25.661C16.0934 25.5354 16.0156 25.3811 15.9823 25.2147L15 20.3033" stroke="white" stroke-width="2" stroke-linecap="round" stroke-linejoin="round"/>
<path d="M16.3254 8.37085H8.7588C8.63569 8.37085 8.51378 8.3951 8.40003 8.44221C8.28629 8.48933 8.18294 8.55838 8.09589 8.64544L4.30584 12.4355C4.18585 12.5555 4.10068 12.7058 4.05941 12.8704C4.01813 13.035 4.0223 13.2077 4.07148 13.3701C4.12065 13.5325 4.21298 13.6785 4.33862 13.7925C4.46426 13.9066 4.6185 13.9844 4.78489 14.0177L9.6963 15" stroke="white" stroke-width="2" stroke-linecap="round" stroke-linejoin="round"/>
</svg>
