<svg width="19" height="15" viewBox="0 0 19 15" fill="none" xmlns="http://www.w3.org/2000/svg">
<path d="M18.3333 0.00832987C17.5353 0.567877 16.6518 0.995841 15.7167 1.27574C15.2148 0.702101 14.5478 0.29552 13.8059 0.110987C13.0639 -0.0735462 12.2829 -0.0271281 11.5684 0.243963C10.8539 0.515055 10.2404 0.99774 9.81082 1.62674C9.38127 2.25573 9.15641 3.00069 9.16667 3.76086V4.58923C7.70219 4.62698 6.25106 4.30412 4.94251 3.6494C3.63395 2.99468 2.5086 2.02843 1.66667 0.836703C1.66667 0.836703 -1.66667 8.29206 5.83333 11.6055C4.11711 12.7636 2.07263 13.3442 0 13.2623C7.5 17.4042 16.6667 13.2623 16.6667 3.73601C16.6659 3.50527 16.6436 3.2751 16.6 3.04846C17.4505 2.2147 18.0507 1.16202 18.3333 0.00832987Z" fill="white"/>
</svg>
