<svg width="143" height="122" viewBox="0 0 143 122" fill="none" xmlns="http://www.w3.org/2000/svg">
<path d="M135.97 57.2854C132.107 53.4608 127.131 51.0982 121.733 50.4801C121.787 49.5428 121.814 48.603 121.814 47.6665C121.814 21.3831 100.431 0 74.1476 0C52.6729 0 34.0855 14.1385 28.2901 34.6145C12.2748 36.3539 0 49.9576 0 66.2924C0 83.8143 14.2558 98.159 31.7777 98.159H50.3145C51.7769 98.159 52.9628 96.9733 52.9628 95.5107C52.9628 94.048 51.7769 92.8624 50.3145 92.8624H31.7777C17.1753 92.8624 5.29628 80.8943 5.29628 66.2922C5.29628 52.1299 16.3673 40.4674 30.5002 39.7976C31.6769 39.7421 32.6737 38.8936 32.949 37.7493C37.5393 18.655 54.4805 5.30773 74.1476 5.30773C97.5101 5.30773 116.518 24.3099 116.518 47.6724C116.518 49.3378 116.421 51.0147 116.228 52.6606C116.14 53.4119 116.378 54.2506 116.88 54.8156C117.383 55.3793 118.103 55.7887 118.858 55.7887C118.861 55.7887 118.862 55.7887 118.863 55.7887C123.951 55.7887 128.703 57.6315 132.245 61.1369C135.764 64.6217 137.703 69.3192 137.703 74.2803C137.703 84.5022 129.387 92.8624 119.166 92.8624H97.9808C96.5184 92.8624 95.3325 94.048 95.3325 95.5107C95.3325 96.9733 96.5181 98.159 97.9808 98.159H119.166C132.307 98.159 142.999 87.3781 142.999 74.2367C142.999 67.8509 140.504 61.7723 135.97 57.2854Z" fill="#F472B6"/>
<path d="M91.891 77.5724L76.0209 61.6852C75.8975 61.5612 75.7612 61.4506 75.6148 61.3528C75.5528 61.3115 75.4855 61.2833 75.421 61.2478C75.3347 61.2001 75.2512 61.1478 75.159 61.1101C75.073 61.0744 74.9833 61.0543 74.8945 61.0277C74.818 61.0054 74.7445 60.9758 74.6652 60.9599C74.3228 60.892 73.9706 60.892 73.6282 60.9599C73.5489 60.9758 73.4757 61.0051 73.3994 61.0277C73.3106 61.054 73.2207 61.0744 73.1344 61.1101C73.0428 61.1478 72.9595 61.1998 72.8732 61.2475C72.8087 61.283 72.7414 61.3115 72.6791 61.3528C72.5331 61.4506 72.3965 61.5609 72.273 61.6852L56.3859 77.5724C55.3514 78.6069 55.3514 80.2824 56.3859 81.3166C57.4204 82.3511 58.959 82.3511 59.9935 81.3166L71.2248 69.9481V119.166C71.2248 120.629 72.4104 121.814 73.8731 121.814C75.3358 121.814 76.5211 120.629 76.5211 119.166V69.9481L88.0264 81.3166C88.5437 81.8341 89.2897 82.0925 89.9672 82.0925C90.6448 82.0925 91.3567 81.8341 91.8737 81.3166C92.9082 80.2824 92.9253 78.6069 91.891 77.5724Z" fill="#F472B6"/>
</svg>
